<?xml version="1.0" standalone="no"?>
<!DOCTYPE svg PUBLIC "-//W3C//DTD SVG 20010904//EN"
 "http://www.w3.org/TR/2001/REC-SVG-20010904/DTD/svg10.dtd">
<svg version="1.0" xmlns="http://www.w3.org/2000/svg"
 width="513.000000pt" height="513.000000pt" viewBox="0 0 513.000000 513.000000"
 preserveAspectRatio="xMidYMid meet">
<metadata>
Created by potrace 1.14, written by Peter Selinger 2001-2017
</metadata>
<g transform="translate(0.000000,513.000000) scale(0.100000,-0.100000)"
fill="#000000" stroke="none">
<path d="M2427 5124 c-1 -1 -36 -4 -77 -8 -41 -3 -90 -8 -108 -10 -18 -3 -52
-8 -75 -11 -238 -35 -579 -147 -777 -256 -275 -151 -424 -261 -631 -468 -246
-247 -436 -534 -564 -851 -40 -99 -105 -303 -119 -373 -22 -108 -39 -197 -42
-222 -5 -40 -15 -121 -20 -170 -5 -49 -5 -335 0 -390 10 -114 19 -192 22 -210
2 -11 11 -55 19 -98 125 -657 518 -1257 1070 -1634 261 -178 555 -308 852
-379 159 -37 145 -51 138 133 -7 194 -4 201 80 224 33 9 87 20 120 24 116 15
383 10 470 -9 194 -42 208 -53 200 -153 -2 -32 -7 -102 -11 -156 l-6 -98 43 6
c210 31 495 127 717 241 102 53 258 146 297 177 6 4 44 32 85 63 113 83 248
208 371 345 173 193 338 454 439 696 63 151 117 315 136 413 3 14 9 41 14 60
5 19 12 51 15 70 3 19 8 47 11 62 3 15 7 44 9 65 2 21 7 72 11 113 18 169 7
476 -21 640 -23 132 -25 141 -41 205 -218 872 -849 1554 -1694 1835 -79 26
-188 57 -235 66 -11 2 -42 8 -70 14 -79 15 -160 27 -250 36 -55 6 -373 12
-378 8z m-3 -532 c-3 -76 -14 -238 -19 -282 -3 -19 -7 -55 -10 -80 -3 -25 -7
-56 -10 -70 -2 -14 -7 -43 -10 -65 -3 -22 -19 -94 -35 -160 -77 -311 -70 -461
25 -572 51 -60 114 -87 200 -87 144 0 249 99 262 244 3 32 -2 100 -11 156 -9
54 -19 113 -22 129 -2 17 -9 55 -14 85 -5 30 -12 71 -14 90 -3 19 -9 64 -15
100 -6 36 -13 88 -16 115 -3 28 -8 61 -10 75 -8 44 -14 84 -20 135 -3 28 -8
66 -10 85 -2 19 -7 58 -11 85 -3 28 -8 55 -11 60 -4 7 -3 7 4 0 5 -5 26 -66
47 -135 108 -358 264 -735 397 -957 133 -224 303 -444 496 -643 113 -116 119
-136 70 -200 -120 -157 -272 -472 -356 -733 -30 -93 -78 -282 -86 -336 -2 -14
-11 -69 -20 -121 -9 -52 -18 -166 -20 -253 -3 -185 -6 -192 -75 -183 -25 3
-56 8 -70 11 -14 3 -43 8 -65 10 -22 3 -51 7 -65 10 -153 29 -432 40 -585 22
-33 -3 -82 -9 -110 -12 -27 -3 -61 -8 -75 -10 -14 -3 -47 -7 -75 -11 -49 -5
-71 -9 -127 -19 -43 -8 -55 22 -63 160 -5 113 -8 139 -20 233 -2 20 -7 57 -10
82 -36 313 -195 725 -431 1113 -30 49 -54 94 -54 100 0 7 29 42 63 78 384 406
625 759 770 1129 61 157 141 412 163 525 28 143 39 184 44 170 3 -9 5 -42 4
-73z m256 -3606 c76 -7 88 -9 170 -21 150 -22 163 -25 199 -44 66 -33 72 -51
78 -223 6 -164 -2 -204 -35 -194 -9 3 -35 7 -57 11 -22 3 -65 9 -95 15 -30 5
-80 11 -110 14 -30 3 -82 8 -115 12 -69 7 -328 7 -395 0 -110 -11 -167 -18
-190 -22 -117 -20 -140 -16 -147 25 -1 11 -15 223 -15 241 -1 63 53 121 129
139 216 51 388 65 583 47z"/>
<path d="M2447 3086 c-89 -37 -137 -82 -176 -166 -35 -75 -36 -191 0 -265 91
-193 342 -245 502 -105 100 88 133 244 77 367 -15 34 -41 74 -56 90 -93 96
-229 127 -347 79z"/>
</g>
</svg>
